<svg width="500" height="500" viewBox="0 0 500 500" fill="none" xmlns="http://www.w3.org/2000/svg">
<path d="M306.07 418.91C322.854 418.91 336.46 415.167 336.46 410.55C336.46 405.933 322.854 402.19 306.07 402.19C289.286 402.19 275.68 405.933 275.68 410.55C275.68 415.167 289.286 418.91 306.07 418.91Z" fill="#3C4D5C" fill-opacity="0.6"/>
<path d="M149 429.54C117.37 429.54 112.7 424.97 112.24 421.28C112.135 420.512 112.211 419.729 112.461 418.995C112.711 418.261 113.128 417.595 113.68 417.05C122.2 408.11 171.3 411.89 239.24 417.12C248.72 417.85 258.52 418.6 268.57 419.35C337.22 424.45 364.86 423.79 370.57 416.89C371.73 415.48 371.97 413.72 371.33 411.34C368.61 401.39 332.25 401.34 318.48 402.12C318.165 402.136 317.856 402.028 317.62 401.819C317.384 401.609 317.241 401.315 317.22 401C317.21 400.844 317.232 400.688 317.283 400.541C317.335 400.393 317.415 400.257 317.519 400.141C317.623 400.025 317.749 399.93 317.89 399.863C318.031 399.796 318.184 399.758 318.34 399.75C323.61 399.44 369.91 397.11 373.62 410.75C374.47 413.89 374.08 416.4 372.4 418.44C365.99 426.22 339.75 427.05 268.4 421.75C258.34 421 248.54 420.25 239.06 419.52C174.3 414.52 123.14 410.59 115.4 418.72C115.094 419.01 114.862 419.37 114.723 419.768C114.583 420.166 114.541 420.592 114.6 421.01C114.89 423.37 120.6 428.65 166.6 426.81C192.33 425.81 218.18 422.98 218.44 422.95C218.741 422.938 219.035 423.04 219.264 423.237C219.492 423.433 219.638 423.709 219.671 424.009C219.704 424.308 219.622 424.609 219.442 424.851C219.262 425.092 218.996 425.256 218.7 425.31C218.44 425.31 192.51 428.15 166.7 429.18C160.06 429.42 154.18 429.54 149 429.54Z" fill="white" stroke="#0F172A" stroke-width="1.1133" stroke-miterlimit="10"/>
<path d="M294.77 417.89C314.547 417.89 330.58 401.857 330.58 382.08C330.58 362.303 314.547 346.27 294.77 346.27C274.993 346.27 258.96 362.303 258.96 382.08C258.96 401.857 274.993 417.89 294.77 417.89Z" fill="white"/>
<mask id="mask0_521_465" style="mask-type:luminance" maskUnits="userSpaceOnUse" x="258" y="346" width="73" height="72">
<path d="M294.77 417.89C314.547 417.89 330.58 401.857 330.58 382.08C330.58 362.303 314.547 346.27 294.77 346.27C274.993 346.27 258.96 362.303 258.96 382.08C258.96 401.857 274.993 417.89 294.77 417.89Z" fill="white"/>
</mask>
<g mask="url(#mask0_521_465)">
<path d="M294.77 417.89C301.287 417.894 307.681 416.12 313.264 412.758C318.846 409.395 323.405 404.573 326.449 398.811C329.492 393.049 330.905 386.565 330.536 380.059C330.166 373.552 328.027 367.27 324.35 361.89C323.96 377.49 315.35 400.52 270.57 408.44C277.162 414.52 285.802 417.894 294.77 417.89Z" fill="#92E3A9"/>
<path opacity="0.3" d="M294.77 417.89C301.287 417.894 307.681 416.12 313.264 412.758C318.846 409.395 323.405 404.573 326.449 398.811C329.492 393.049 330.905 386.565 330.536 380.059C330.166 373.552 328.027 367.27 324.35 361.89C323.96 377.49 315.35 400.52 270.57 408.44C277.162 414.52 285.802 417.894 294.77 417.89Z" fill="white"/>
<path d="M312.39 396.12C306.004 389.908 298.25 385.28 289.75 382.61M312.39 396.12H314.29C318.505 391.942 322.134 387.212 325.08 382.06C308.31 364.34 292 366.15 292 366.15C292 366.15 308.36 364.34 325.13 382.08C326.05 380.43 326.82 378.88 327.45 377.45C320.47 367.67 308.45 361 302 360L300.5 359.64M312.39 396.12C297.66 395.91 286.46 393.63 278.09 390.58C278.63 367.96 286.7 352.89 290.92 346.51C292.265 346.354 293.617 346.274 294.97 346.27C296.2 346.27 297.4 346.34 298.6 346.45M300.5 359.64C298.188 359.22 295.823 359.186 293.5 359.54M300.5 359.64L304.77 347.64C302.752 347.063 300.688 346.665 298.6 346.45M298.6 346.45C295.83 350.92 288.7 365.2 288.7 393.53M320.48 388.83C306.22 374.93 290.48 374.2 290.48 374.2" stroke="#0F172A" stroke-width="1.1133" stroke-linecap="round" stroke-linejoin="round"/>
<path d="M278.05 390.64C278.59 368.02 286.66 352.95 290.88 346.57C287.578 346.941 284.344 347.768 281.27 349.03C273.691 360.149 269.41 373.183 268.92 386.63C271.857 388.198 274.909 389.538 278.05 390.64Z" stroke="#0F172A" stroke-width="1.1133" stroke-linecap="round" stroke-linejoin="round"/>
<path d="M281.27 349C275.086 351.55 269.738 355.777 265.829 361.205C261.921 366.634 259.607 373.047 259.15 379.72C262.095 382.427 265.379 384.74 268.92 386.6C269.41 373.153 273.691 360.119 281.27 349Z" stroke="#0F172A" stroke-width="1.1133" stroke-linecap="round" stroke-linejoin="round"/>
<path d="M327.4 377.45C328.179 375.728 328.847 373.958 329.4 372.15C327.905 367.05 325.299 362.344 321.77 358.37L319 367.61L321.72 358.37C319.511 355.892 316.971 353.732 314.17 351.95L311.12 363.36L314.19 352C311.262 350.127 308.075 348.695 304.73 347.75L300.46 359.75C307 360.69 317.11 364.54 327.4 377.45Z" stroke="#0F172A" stroke-width="1.1133" stroke-linecap="round" stroke-linejoin="round"/>
<path d="M296.75 409.73C300.916 407.21 304.89 404.386 308.64 401.28C310.69 399.56 314.45 396.15 314.57 396.15C314.45 396.15 321.63 388.05 324.01 383.82C324.01 383.88 325.07 382.14 325.01 382.08C324.95 382.02 325.87 380.57 325.81 380.51C326.393 379.53 326.901 378.507 327.33 377.45C328.109 375.728 328.777 373.958 329.33 372.15C330.285 375.418 330.77 378.805 330.77 382.21C330.77 382.77 330.77 383.25 330.77 383.77C315.65 405 304 414.1 296.67 418.09C296.08 418.09 295.48 418.09 294.87 418.09C291.203 418.09 287.558 417.531 284.06 416.43C288.416 414.443 292.653 412.206 296.75 409.73ZM296.75 409.73H297.01" stroke="#0F172A" stroke-width="1.1133" stroke-linecap="round" stroke-linejoin="round"/>
<path d="M330.77 383.77C315.65 405 304 414.1 296.73 418C305.645 417.551 314.073 413.795 320.367 407.466C326.662 401.136 330.371 392.688 330.77 383.77Z" stroke="#0F172A" stroke-width="1.1133" stroke-linecap="round" stroke-linejoin="round"/>
<path d="M266.89 404.57C271.327 410.148 277.326 414.277 284.12 416.43C288.476 414.443 292.713 412.206 296.81 409.73C288.27 411.31 274.91 407.39 266.89 404.57Z" stroke="#0F172A" stroke-width="1.1133" stroke-linecap="round" stroke-linejoin="round"/>
<path d="M296.81 409.73C300.976 407.21 304.95 404.386 308.7 401.28C282.91 403.92 267 395.93 260.24 391.39C261.516 396.198 263.781 400.687 266.89 404.57C274.91 407.39 288.27 411.31 296.81 409.73Z" stroke="#0F172A" stroke-width="1.1133" stroke-linecap="round" stroke-linejoin="round"/>
<path d="M312.39 396.14H314.29C312.6 397.84 310.75 399.56 308.7 401.28C282.91 403.92 267 395.93 260.24 391.41C259.451 388.414 259.051 385.328 259.05 382.23C259.05 381.4 259.09 380.59 259.15 379.77C261.33 381.82 265.76 386.4 278.05 390.66C286.46 393.65 297.66 395.93 312.39 396.14ZM312.39 396.14C312.53 396.27 312.67 396.4 312.8 396.54" stroke="#0F172A" stroke-width="1.1133" stroke-linecap="round" stroke-linejoin="round"/>
</g>
<path d="M294.77 417.89C314.547 417.89 330.58 401.857 330.58 382.08C330.58 362.303 314.547 346.27 294.77 346.27C274.993 346.27 258.96 362.303 258.96 382.08C258.96 401.857 274.993 417.89 294.77 417.89Z" stroke="#0F172A" stroke-width="1.1133" stroke-linecap="round" stroke-linejoin="round"/>
<path d="M360.73 320.88C360.73 320.88 358.28 312.93 351.14 310.07C346.14 308.07 340.47 308.61 335.32 309.5C325.74 311.17 317.38 314.98 308.32 318.23C308.32 318.23 312.2 316.8 328.11 324.56C333.97 327.41 340.67 329.63 347.37 329.48C352.74 329.36 361 327.82 360.73 320.88Z" fill="#92E3A9"/>
<path d="M361.59 297.51C361.59 297.51 361.59 289.18 355.59 284.39C351.41 281.05 345.79 279.9 340.59 279.27C330.93 278.1 321.83 279.33 312.19 279.82C312.19 279.82 316.32 279.58 329.31 291.6C334.1 296.02 339.88 300.08 346.31 301.87C351.49 303.31 359.83 304.23 361.59 297.51Z" fill="#92E3A9"/>
<path d="M378 328.42C378 328.42 371.51 323.21 371.49 315.52C371.49 310.17 374.06 305.06 376.79 300.61C381.87 292.31 388.49 285.95 394.87 278.7C394.87 278.7 392.11 281.78 393.45 299.43C393.95 305.93 393.53 312.98 390.92 319.15C388.87 324.11 384.4 331.22 378 328.42Z" fill="#92E3A9"/>
<path d="M401 341.2C401 341.2 400.08 332.93 405.5 327.47C409.26 323.68 414.71 321.88 419.78 320.66C429.24 318.38 438.42 318.55 448.05 317.92C448.05 317.92 443.93 318.15 432.41 331.59C428.17 336.59 422.9 341.24 416.69 343.77C411.74 345.8 403.56 347.67 401 341.2Z" fill="#92E3A9"/>
<path d="M399.53 311.71C399.53 311.71 391.28 310.58 387.32 303.99C384.56 299.41 384.15 293.69 384.2 288.47C384.3 278.75 386.72 269.88 388.47 260.39C388.47 260.39 387.68 264.45 397.9 278.9C401.66 284.23 404.9 290.49 405.9 297.13C406.61 302.46 406.42 310.85 399.53 311.71Z" fill="#92E3A9"/>
<path d="M423.27 296.9C423.27 296.9 429.2 302.74 436.84 301.9C442.15 301.29 446.93 298.12 451.03 294.9C458.67 288.9 464.22 281.56 470.67 274.39C470.67 274.39 467.94 277.48 450.25 278.21C443.74 278.48 436.79 279.71 430.96 283.03C426.28 285.65 419.75 290.92 423.27 296.9Z" fill="#92E3A9"/>
<path d="M416.4 291.13C416.4 291.13 424.68 291.96 430.08 286.49C433.84 282.68 435.58 277.22 436.75 272.13C438.93 262.66 438.67 253.47 439.19 243.84C439.19 243.84 439.01 247.96 425.68 259.62C420.78 263.91 416.13 269.23 413.68 275.46C411.69 280.47 409.9 288.67 416.4 291.13Z" fill="#92E3A9"/>
<path d="M386.83 371.74L372.53 336.55L356.04 295.86" stroke="#0F172A" stroke-width="1.1133" stroke-linecap="round" stroke-linejoin="round"/>
<path d="M390.13 365.69L404.42 316.76L419.82 286.52" stroke="#0F172A" stroke-width="1.1133" stroke-linecap="round" stroke-linejoin="round"/>
<path d="M395.62 346.45L409.92 338.2" stroke="#0F172A" stroke-width="1.1133" stroke-linecap="round" stroke-linejoin="round"/>
<path d="M404.42 316.76L397.27 300.81" stroke="#0F172A" stroke-width="1.1133" stroke-linecap="round" stroke-linejoin="round"/>
<path d="M413.37 300.89L430.81 293.11" stroke="#0F172A" stroke-width="1.1133" stroke-linecap="round" stroke-linejoin="round"/>
<path d="M375.28 343.15L381.33 318.96" stroke="#0F172A" stroke-width="1.1133" stroke-linecap="round" stroke-linejoin="round"/>
<path d="M367.26 324.76L353.29 317.31" stroke="#0F172A" stroke-width="1.1133" stroke-linecap="round" stroke-linejoin="round"/>
<path d="M394.16 389.33H382.24C380.291 389.329 378.404 388.649 376.904 387.406C375.403 386.162 374.383 384.435 374.02 382.52L369.78 360.19H406.62L402.39 382.52C402.025 384.435 401.003 386.163 399.501 387.406C397.999 388.65 396.11 389.33 394.16 389.33Z" fill="#0F172A" stroke="#0F172A" stroke-width="1.1133" stroke-linecap="round" stroke-linejoin="round"/>
<path d="M231.15 342.28C208.89 342.28 195.51 322.53 190.76 305.16L190.6 304.55C190.347 303.708 190.266 302.823 190.363 301.949C190.46 301.075 190.732 300.229 191.163 299.463C191.594 298.696 192.175 298.024 192.872 297.487C193.568 296.951 194.366 296.56 195.217 296.339C196.068 296.117 196.955 296.07 197.825 296.199C198.695 296.328 199.53 296.632 200.28 297.091C201.03 297.551 201.679 298.157 202.19 298.873C202.7 299.589 203.061 300.401 203.25 301.26L203.37 301.71C206.98 314.93 216.81 330.04 232.58 329.17C235.545 329.067 238.456 328.342 241.123 327.041C243.79 325.74 246.153 323.893 248.06 321.62C256.71 311.7 260.58 290.13 259.72 279.25C259.638 278.552 259.699 277.844 259.897 277.17C260.095 276.496 260.427 275.868 260.873 275.325C261.319 274.782 261.87 274.334 262.493 274.009C263.116 273.683 263.799 273.487 264.499 273.431C265.2 273.375 265.905 273.461 266.572 273.684C267.238 273.906 267.853 274.261 268.38 274.727C268.906 275.193 269.333 275.76 269.636 276.394C269.938 277.029 270.11 277.718 270.14 278.42C271.14 290.53 269.82 316.56 257.91 330.21C254.861 333.799 251.103 336.718 246.871 338.784C242.639 340.849 238.025 342.015 233.32 342.21C232.59 342.26 231.86 342.28 231.15 342.28Z" fill="white"/>
<mask id="mask1_521_465" style="mask-type:luminance" maskUnits="userSpaceOnUse" x="190" y="273" width="81" height="70">
<path d="M231.15 342.28C208.89 342.28 195.51 322.53 190.76 305.16L190.6 304.55C190.347 303.708 190.266 302.823 190.363 301.949C190.46 301.075 190.732 300.229 191.163 299.463C191.594 298.696 192.175 298.024 192.872 297.487C193.568 296.951 194.366 296.56 195.217 296.339C196.068 296.117 196.955 296.07 197.825 296.199C198.695 296.328 199.53 296.632 200.28 297.091C201.03 297.551 201.679 298.157 202.19 298.873C202.7 299.589 203.061 300.401 203.25 301.26L203.37 301.71C206.98 314.93 216.81 330.04 232.58 329.17C235.545 329.067 238.456 328.342 241.123 327.041C243.79 325.74 246.153 323.893 248.06 321.62C256.71 311.7 260.58 290.13 259.72 279.25C259.638 278.552 259.699 277.844 259.897 277.17C260.095 276.496 260.427 275.868 260.873 275.325C261.319 274.782 261.87 274.334 262.493 274.009C263.116 273.683 263.799 273.487 264.499 273.431C265.2 273.375 265.905 273.461 266.572 273.684C267.238 273.906 267.853 274.261 268.38 274.727C268.906 275.193 269.333 275.76 269.636 276.394C269.938 277.029 270.11 277.718 270.14 278.42C271.14 290.53 269.82 316.56 257.91 330.21C254.861 333.799 251.103 336.718 246.871 338.784C242.639 340.849 238.025 342.015 233.32 342.21C232.59 342.26 231.86 342.28 231.15 342.28Z" fill="white"/>
</mask>
<g mask="url(#mask1_521_465)">
<path d="M264.51 273.62C263.129 273.732 261.848 274.388 260.95 275.444C260.052 276.499 259.61 277.868 259.72 279.25C260.14 284.56 259.43 292.41 257.59 300.25C260.218 300.139 262.846 300.477 265.36 301.25C264.765 308.773 262.123 315.991 257.72 322.12C248.01 335.61 233.45 339.92 222.12 338.3C217.05 337.58 211.24 334.92 206.35 332.19C212.985 338.66 221.882 342.287 231.15 342.3C231.86 342.3 232.59 342.3 233.32 342.24C238.025 342.046 242.639 340.879 246.871 338.814C251.103 336.748 254.862 333.829 257.91 330.24C269.82 316.59 271.1 290.56 270.14 278.45C270.091 277.762 269.906 277.091 269.595 276.475C269.285 275.859 268.856 275.31 268.332 274.861C267.809 274.412 267.201 274.071 266.545 273.858C265.889 273.645 265.198 273.564 264.51 273.62Z" fill="#92E3A9"/>
<path opacity="0.5" d="M264.51 273.62C263.129 273.732 261.848 274.388 260.95 275.444C260.052 276.499 259.61 277.868 259.72 279.25C260.14 284.56 259.43 292.41 257.59 300.25C260.218 300.139 262.846 300.477 265.36 301.25C264.765 308.773 262.123 315.991 257.72 322.12C248.01 335.61 233.45 339.92 222.12 338.3C217.05 337.58 211.24 334.92 206.35 332.19C212.985 338.66 221.882 342.287 231.15 342.3C231.86 342.3 232.59 342.3 233.32 342.24C238.025 342.046 242.639 340.879 246.871 338.814C251.103 336.748 254.862 333.829 257.91 330.24C269.82 316.59 271.1 290.56 270.14 278.45C270.091 277.762 269.906 277.091 269.595 276.475C269.285 275.859 268.856 275.31 268.332 274.861C267.809 274.412 267.201 274.071 266.545 273.858C265.889 273.645 265.198 273.564 264.51 273.62Z" fill="white"/>
</g>
<path d="M231.15 342.28C208.89 342.28 195.51 322.53 190.76 305.16L190.6 304.55C190.347 303.708 190.266 302.823 190.363 301.949C190.46 301.075 190.732 300.229 191.163 299.463C191.594 298.696 192.175 298.024 192.872 297.487C193.568 296.951 194.366 296.56 195.217 296.339C196.068 296.117 196.955 296.07 197.825 296.199C198.695 296.328 199.53 296.632 200.28 297.091C201.03 297.551 201.679 298.157 202.19 298.873C202.7 299.589 203.061 300.401 203.25 301.26L203.37 301.71C206.98 314.93 216.81 330.04 232.58 329.17C235.545 329.067 238.456 328.342 241.123 327.041C243.79 325.74 246.153 323.893 248.06 321.62C256.71 311.7 260.58 290.13 259.72 279.25C259.638 278.552 259.699 277.844 259.897 277.17C260.095 276.496 260.427 275.868 260.873 275.325C261.319 274.782 261.87 274.334 262.493 274.009C263.116 273.683 263.799 273.487 264.499 273.431C265.2 273.375 265.905 273.461 266.572 273.684C267.238 273.906 267.853 274.261 268.38 274.727C268.906 275.193 269.333 275.76 269.636 276.394C269.938 277.029 270.11 277.718 270.14 278.42C271.14 290.53 269.82 316.56 257.91 330.21C254.861 333.799 251.103 336.718 246.871 338.784C242.639 340.849 238.025 342.015 233.32 342.21C232.59 342.26 231.86 342.28 231.15 342.28Z" stroke="#0F172A" stroke-width="1.1133" stroke-linecap="round" stroke-linejoin="round"/>
<path d="M218.31 328.75C218.84 326.3 212.98 330.13 208.07 333.7C209.886 335.235 211.841 336.597 213.91 337.77C215.66 334.92 217.8 331.11 218.31 328.75Z" fill="#92E3A9" stroke="#0F172A" stroke-width="1.1133" stroke-linecap="round" stroke-linejoin="round"/>
<path d="M231.15 342.28C231.86 342.28 232.59 342.28 233.32 342.22C235.445 342.101 237.555 341.803 239.63 341.33C236.87 337.73 233.07 332.97 231.98 332.61C230.73 332.19 228.32 338.32 226.98 342.04C228.364 342.202 229.756 342.282 231.15 342.28Z" fill="#92E3A9" stroke="#0F172A" stroke-width="1.1133" stroke-linecap="round" stroke-linejoin="round"/>
<path d="M203.37 301.71L203.25 301.26C203.061 300.401 202.7 299.589 202.19 298.873C201.679 298.157 201.03 297.551 200.28 297.091C199.53 296.632 198.695 296.328 197.825 296.199C196.955 296.07 196.068 296.117 195.217 296.338C194.366 296.56 193.568 296.951 192.872 297.487C192.175 298.024 191.594 298.696 191.163 299.463C190.732 300.229 190.46 301.075 190.363 301.949C190.266 302.823 190.347 303.708 190.6 304.55L190.76 305.16C192.427 311.26 194.988 317.08 198.36 322.43L210.27 316.76C207.147 312.163 204.815 307.076 203.37 301.71Z" fill="#92E3A9" stroke="#0F172A" stroke-width="1.1133" stroke-linecap="round" stroke-linejoin="round"/>
<path d="M257.91 330.21C258.825 329.151 259.673 328.035 260.45 326.87C256.67 325.58 251.01 323.8 248.91 323.99C246.42 324.22 249.8 332.22 251.54 335.99C253.882 334.319 256.02 332.379 257.91 330.21Z" fill="#92E3A9" stroke="#0F172A" stroke-width="1.1133" stroke-linecap="round" stroke-linejoin="round"/>
<path d="M258.12 308.84C257.72 309.64 262.61 313.2 265.91 315.49C266.957 312.375 267.798 309.195 268.43 305.97C264.43 306.77 258.51 308.06 258.12 308.84Z" fill="#92E3A9" stroke="#0F172A" stroke-width="1.1133" stroke-linecap="round" stroke-linejoin="round"/>
<path d="M270.05 294.05C270.27 291.2 270.38 288.48 270.39 285.98C266.95 287.87 262.87 290.49 262.87 292.21C262.87 293.93 266.69 294.14 270.05 294.05Z" fill="#92E3A9" stroke="#0F172A" stroke-width="1.1133" stroke-linecap="round" stroke-linejoin="round"/>
<path d="M216.21 216.68C216.21 216.68 206.5 244.8 211.73 266.68C213.279 273.083 216.286 279.041 220.517 284.091C224.747 289.14 230.087 293.144 236.12 295.79C236.12 295.79 221.93 300.79 225.12 308.48C228.31 316.17 240.54 311.22 244.53 308.73C248.52 306.24 253.53 298.78 254.23 293.8C254.675 291.256 254.842 288.671 254.73 286.09C254.73 286.09 270.9 284.35 281.85 275.39C281.85 275.39 291.56 283.1 298.53 281.61C305.5 280.12 315.45 267.67 314.45 256.48C313.45 245.29 307 245.3 303.06 247C301.015 247.773 299.15 248.958 297.58 250.48C297.58 250.48 303.3 243.48 297.58 233.81C295.892 230.974 293.58 228.559 290.82 226.748C288.06 224.937 284.924 223.779 281.65 223.36C281.65 223.36 278.65 207.43 269.71 201.46C260.77 195.49 228.9 189.31 216.21 216.68Z" fill="white"/>
<mask id="mask2_521_465" style="mask-type:luminance" maskUnits="userSpaceOnUse" x="210" y="196" width="105" height="117">
<path d="M216.21 216.68C216.21 216.68 206.5 244.8 211.73 266.68C213.279 273.083 216.286 279.041 220.517 284.091C224.747 289.14 230.087 293.144 236.12 295.79C236.12 295.79 221.93 300.79 225.12 308.48C228.31 316.17 240.54 311.22 244.53 308.73C248.52 306.24 253.53 298.78 254.23 293.8C254.675 291.256 254.842 288.671 254.73 286.09C254.73 286.09 270.9 284.35 281.85 275.39C281.85 275.39 291.56 283.1 298.53 281.61C305.5 280.12 315.45 267.67 314.45 256.48C313.45 245.29 307 245.3 303.06 247C301.015 247.773 299.15 248.958 297.58 250.48C297.58 250.48 303.3 243.48 297.58 233.81C295.892 230.974 293.58 228.559 290.82 226.748C288.06 224.937 284.924 223.779 281.65 223.36C281.65 223.36 278.65 207.43 269.71 201.46C260.77 195.49 228.9 189.31 216.21 216.68Z" fill="white"/>
</mask>
<g mask="url(#mask2_521_465)">
<path d="M290.14 226.35C285.523 234.051 279.135 240.538 271.507 245.272C263.878 250.007 255.229 252.852 246.28 253.57C226.48 255.31 215.38 251.41 210.28 248.7C210.899 237.82 212.915 227.065 216.28 216.7C228.97 189.33 260.82 195.55 269.78 201.52C278.74 207.49 281.72 223.42 281.72 223.42C284.701 223.794 287.57 224.793 290.14 226.35ZM303.06 247C301.015 247.773 299.149 248.958 297.58 250.48C298.791 248.81 299.589 246.878 299.91 244.84C286.46 251.54 287.51 265.84 285.84 265.84C283.78 265.84 282.76 258.65 282.76 258.65C282.76 258.65 280.19 268.92 264.76 276.12C249.33 283.32 231.88 277.66 231.88 277.66C231.88 277.66 235.48 285.88 226.23 284.85C223.634 284.602 221.145 283.693 219 282.21C223.435 288.124 229.327 292.788 236.1 295.75C236.1 295.75 221.91 300.75 225.1 308.44C228.29 316.13 240.53 311.18 244.51 308.69C248.49 306.2 253.51 298.74 254.21 293.76C254.655 291.216 254.822 288.631 254.71 286.05C254.71 286.05 270.88 284.31 281.83 275.35C281.83 275.35 291.54 283.06 298.51 281.57C305.48 280.08 315.43 267.63 314.43 256.44C313.43 245.25 307 245.3 303.06 247Z" fill="#92E3A9"/>
<path opacity="0.5" d="M290.14 226.35C285.523 234.051 279.135 240.538 271.507 245.272C263.878 250.007 255.229 252.852 246.28 253.57C226.48 255.31 215.38 251.41 210.28 248.7C210.899 237.82 212.915 227.065 216.28 216.7C228.97 189.33 260.82 195.55 269.78 201.52C278.74 207.49 281.72 223.42 281.72 223.42C284.701 223.794 287.57 224.793 290.14 226.35ZM303.06 247C301.015 247.773 299.149 248.958 297.58 250.48C298.791 248.81 299.589 246.878 299.91 244.84C286.46 251.54 287.51 265.84 285.84 265.84C283.78 265.84 282.76 258.65 282.76 258.65C282.76 258.65 280.19 268.92 264.76 276.12C249.33 283.32 231.88 277.66 231.88 277.66C231.88 277.66 235.48 285.88 226.23 284.85C223.634 284.602 221.145 283.693 219 282.21C223.435 288.124 229.327 292.788 236.1 295.75C236.1 295.75 221.91 300.75 225.1 308.44C228.29 316.13 240.53 311.18 244.51 308.69C248.49 306.2 253.51 298.74 254.21 293.76C254.655 291.216 254.822 288.631 254.71 286.05C254.71 286.05 270.88 284.31 281.83 275.35C281.83 275.35 291.54 283.06 298.51 281.57C305.48 280.08 315.43 267.63 314.43 256.44C313.43 245.25 307 245.3 303.06 247Z" fill="white"/>
<path d="M254.78 286.11C249.413 286.253 244.085 285.164 239.205 282.926C234.325 280.688 230.023 277.361 226.63 273.2" stroke="#0F172A" stroke-width="1.1133" stroke-linecap="round" stroke-linejoin="round"/>
</g>
<path d="M216.21 216.68C216.21 216.68 206.5 244.8 211.73 266.68C213.279 273.083 216.286 279.041 220.517 284.091C224.747 289.14 230.087 293.144 236.12 295.79C236.12 295.79 221.93 300.79 225.12 308.48C228.31 316.17 240.54 311.22 244.53 308.73C248.52 306.24 253.53 298.78 254.23 293.8C254.675 291.256 254.842 288.671 254.73 286.09C254.73 286.09 270.9 284.35 281.85 275.39C281.85 275.39 291.56 283.1 298.53 281.61C305.5 280.12 315.45 267.67 314.45 256.48C313.45 245.29 307 245.3 303.06 247C301.015 247.773 299.15 248.958 297.58 250.48C297.58 250.48 303.3 243.48 297.58 233.81C295.892 230.974 293.58 228.559 290.82 226.748C288.06 224.937 284.924 223.779 281.65 223.36C281.65 223.36 278.65 207.43 269.71 201.46C260.77 195.49 228.9 189.31 216.21 216.68Z" stroke="#0F172A" stroke-width="1.1133" stroke-linecap="round" stroke-linejoin="round"/>
<path d="M297.58 250.52C297.58 250.52 292.36 254.01 289.87 264.71" stroke="#0F172A" stroke-width="1.1133" stroke-linecap="round" stroke-linejoin="round"/>
<path d="M307.17 255.1C306.56 256.92 304.89 258.01 303.45 257.52C302.01 257.03 301.35 255.16 301.96 253.34C302.57 251.52 304.24 250.43 305.68 250.92C307.12 251.41 307.79 253.28 307.17 255.1Z" fill="white" stroke="#0F172A" stroke-width="1.1133" stroke-linecap="round" stroke-linejoin="round"/>
<path d="M312.32 258.34C311.71 260.16 310.04 261.25 308.6 260.76C307.16 260.27 306.49 258.4 307.11 256.58C307.73 254.76 309.39 253.67 310.83 254.16C312.27 254.65 312.94 256.52 312.32 258.34Z" fill="white" stroke="#0F172A" stroke-width="1.1133" stroke-linecap="round" stroke-linejoin="round"/>
<path d="M313.42 263.19C313.22 263.525 312.93 263.796 312.582 263.972C312.234 264.148 311.844 264.222 311.456 264.185C311.068 264.149 310.698 264.003 310.39 263.764C310.082 263.526 309.848 263.205 309.714 262.838C309.581 262.472 309.555 262.075 309.638 261.695C309.721 261.314 309.911 260.965 310.185 260.687C310.459 260.41 310.806 260.216 311.185 260.128C311.565 260.04 311.962 260.061 312.33 260.19C312.861 260.455 313.27 260.915 313.473 261.473C313.675 262.031 313.657 262.645 313.42 263.19Z" fill="white" stroke="#0F172A" stroke-width="1.1133" stroke-linecap="round" stroke-linejoin="round"/>
<path d="M306.85 269.85C305.05 273.1 301.45 274.54 298.8 273.07C296.15 271.6 295.47 267.79 297.27 264.54C299.07 261.29 302.67 259.85 305.32 261.32C307.97 262.79 308.65 266.6 306.85 269.85Z" fill="white" stroke="#0F172A" stroke-width="1.1133" stroke-linecap="round" stroke-linejoin="round"/>
<path d="M236.12 295.81C239.472 297.37 243.282 297.637 246.82 296.56" stroke="#0F172A" stroke-width="1.1133" stroke-linecap="round" stroke-linejoin="round"/>
<path d="M225.17 308.5C225.17 308.5 226.17 304.27 232.38 301.29" stroke="#0F172A" stroke-width="1.1133" stroke-linecap="round" stroke-linejoin="round"/>
<path d="M231.39 312.24C231.39 312.24 233.88 306.24 238.11 303.53" stroke="#0F172A" stroke-width="1.1133" stroke-linecap="round" stroke-linejoin="round"/>
<path d="M133.26 243.4C132.202 242.556 131.359 241.474 130.799 240.241C130.24 239.009 129.979 237.662 130.04 236.31V212.6H68.8798C67.3858 212.656 65.8974 212.388 64.5166 211.815C63.1357 211.242 61.8951 210.377 60.8798 209.28C58.8794 207.164 57.7818 204.352 57.8198 201.44C57.8117 199.074 58.5079 196.759 59.8198 194.79L118.4 102.73C122.8 95.9367 128.646 92.5401 135.94 92.5401C139.861 92.4068 143.689 93.7485 146.67 96.3001C149.53 98.8001 150.96 102.517 150.96 107.45V196.94H166.52C167.595 196.875 168.67 197.048 169.671 197.445C170.672 197.843 171.572 198.455 172.31 199.24C173.626 200.782 174.348 202.743 174.348 204.77C174.348 206.797 173.626 208.758 172.31 210.3C171.572 211.085 170.672 211.697 169.671 212.095C168.67 212.492 167.595 212.665 166.52 212.6H150.85V236.31C150.915 237.652 150.668 238.99 150.128 240.221C149.588 241.451 148.771 242.539 147.74 243.4C145.727 245.088 143.176 245.999 140.55 245.97C137.894 245.991 135.315 245.082 133.26 243.4ZM130 196.94V114.54L78.7098 196.94H130Z" fill="#0F172A"/>
<path d="M218.13 243.88C212.135 241.264 206.827 237.297 202.62 232.29C198.394 227 195.094 221.032 192.86 214.64C190.328 207.735 188.547 200.577 187.55 193.29C186.509 185.356 186.008 177.361 186.05 169.36C186.05 116.647 204.05 90.29 240.05 90.29C276.05 90.29 294.006 116.647 293.92 169.36C293.955 177.323 293.471 185.28 292.47 193.18C291.505 200.468 289.741 207.628 287.21 214.53C284.976 220.922 281.676 226.89 277.45 232.18C273.237 237.194 267.931 241.176 261.94 243.82C255.051 246.865 247.58 248.367 240.05 248.22C232.516 248.371 225.038 246.891 218.13 243.88ZM250.69 228.75C253.702 227.465 256.436 225.607 258.74 223.28C261.073 220.796 262.99 217.953 264.42 214.86C265.997 211.583 267.272 208.169 268.23 204.66C269.238 200.837 269.973 196.947 270.43 193.02C270.97 188.687 271.33 184.717 271.51 181.11C271.69 177.503 271.776 173.587 271.77 169.36C271.77 164.927 271.683 160.833 271.51 157.08C271.336 153.327 270.96 149.3 270.38 145C269.882 141.076 269.13 137.187 268.13 133.36C267.183 129.886 265.908 126.511 264.32 123.28C262.88 120.236 260.958 117.443 258.63 115.01C256.34 112.729 253.621 110.925 250.63 109.7C243.792 107.06 236.217 107.06 229.38 109.7C226.411 110.91 223.712 112.698 221.44 114.96C219.129 117.383 217.212 120.153 215.76 123.17C214.158 126.372 212.898 129.734 212 133.2C211.024 137.05 210.289 140.958 209.8 144.9C209.22 149.26 208.843 153.32 208.67 157.08C208.496 160.84 208.406 164.933 208.4 169.36C208.4 173.58 208.49 177.513 208.67 181.16C208.85 184.807 209.206 188.807 209.74 193.16C210.201 197.087 210.936 200.976 211.94 204.8C212.884 208.308 214.146 211.722 215.71 215C217.125 218.074 219.026 220.901 221.34 223.37C223.626 225.682 226.344 227.524 229.34 228.79C236.184 231.576 243.846 231.576 250.69 228.79V228.75Z" fill="#0F172A"/>
<path d="M386.58 243.4C385.522 242.556 384.679 241.473 384.119 240.241C383.56 239.009 383.299 237.662 383.36 236.31V212.6H322.2C320.706 212.656 319.217 212.388 317.837 211.815C316.456 211.242 315.215 210.377 314.2 209.28C312.199 207.164 311.102 204.352 311.14 201.44C311.132 199.074 311.828 196.759 313.14 194.79L371.72 102.73C376.08 95.9366 381.91 92.5399 389.21 92.5399C393.151 92.3915 397.004 93.7341 400 96.2999C402.86 98.7999 404.29 102.517 404.29 107.45V196.94H419.85C420.925 196.875 422 197.048 423.001 197.445C424.002 197.843 424.903 198.455 425.64 199.24C426.956 200.782 427.678 202.743 427.678 204.77C427.678 206.797 426.956 208.758 425.64 210.3C424.903 211.084 424.002 211.697 423.001 212.095C422 212.492 420.925 212.665 419.85 212.6H404.17V236.31C404.235 237.652 403.988 238.99 403.448 240.22C402.908 241.451 402.091 242.539 401.06 243.4C399.047 245.088 396.496 245.999 393.87 245.97C391.214 245.991 388.635 245.082 386.58 243.4ZM383.36 196.94V114.54L332.07 196.94H383.36Z" fill="#0F172A"/>
<path d="M196.05 202.5C196.05 202.5 185.6 217.18 184.11 232.11C182.62 247.04 184.36 256.99 188.84 260.73C193.32 264.47 197.79 262.97 200.28 259.48C202.77 255.99 198.79 243.8 198.79 243.8C198.79 243.8 203.02 232.11 209.49 223.9C215.96 215.69 217.2 214.44 217.2 214.44C217.2 214.44 206 201.75 196.05 202.5Z" fill="white"/>
<mask id="mask3_521_465" style="mask-type:luminance" maskUnits="userSpaceOnUse" x="183" y="202" width="35" height="61">
<path d="M196.05 202.5C196.05 202.5 185.6 217.18 184.11 232.11C182.62 247.04 184.36 256.99 188.84 260.73C193.32 264.47 197.79 262.97 200.28 259.48C202.77 255.99 198.79 243.8 198.79 243.8C198.79 243.8 203.02 232.11 209.49 223.9C215.96 215.69 217.2 214.44 217.2 214.44C217.2 214.44 206 201.75 196.05 202.5Z" fill="white"/>
</mask>
<g mask="url(#mask3_521_465)">
<path d="M196.05 202.5C193.769 205.869 191.747 209.406 190 213.08C195 215.08 202.75 219.18 207.67 226.44C208.27 225.57 208.89 224.71 209.53 223.9C216 215.69 217.24 214.44 217.24 214.44C217.24 214.44 206 201.75 196.05 202.5Z" fill="#92E3A9"/>
<path opacity="0.5" d="M196.05 202.5C193.769 205.869 191.747 209.406 190 213.08C195 215.08 202.75 219.18 207.67 226.44C208.27 225.57 208.89 224.71 209.53 223.9C216 215.69 217.24 214.44 217.24 214.44C217.24 214.44 206 201.75 196.05 202.5Z" fill="white"/>
</g>
<path d="M196.05 202.5C196.05 202.5 185.6 217.18 184.11 232.11C182.62 247.04 184.36 256.99 188.84 260.73C193.32 264.47 197.79 262.97 200.28 259.48C202.77 255.99 198.79 243.8 198.79 243.8C198.79 243.8 203.02 232.11 209.49 223.9C215.96 215.69 217.2 214.44 217.2 214.44C217.2 214.44 206 201.75 196.05 202.5Z" stroke="#0F172A" stroke-width="1.1133" stroke-linecap="round" stroke-linejoin="round"/>
<path d="M188.84 260.73C187.618 257.467 187.024 254.003 187.09 250.52" stroke="#0F172A" stroke-width="1.1133" stroke-linecap="round" stroke-linejoin="round"/>
<path d="M195.55 262.22C195.55 262.22 193.07 257.99 192.82 250.77" stroke="#0F172A" stroke-width="1.1133" stroke-linecap="round" stroke-linejoin="round"/>
<path d="M199.29 229.12C199.29 226.5 194.29 221.38 187.34 219.12C186.405 221.556 185.634 224.052 185.03 226.59C187.73 227.052 190.352 227.89 192.82 229.08C196.55 231.11 199.29 232.11 199.29 229.12Z" fill="#92E3A9" stroke="#0F172A" stroke-width="1.1133" stroke-linecap="round" stroke-linejoin="round"/>
<path d="M195.44 203.39C193.828 205.847 192.346 208.388 191 211C193.104 211.557 195.123 212.398 197 213.5C204.71 217.97 206.2 218.5 203.72 212C202.22 207.92 198.64 205.15 195.44 203.39Z" fill="#92E3A9" stroke="#0F172A" stroke-width="1.1133" stroke-linecap="round" stroke-linejoin="round"/>
<path d="M277.9 195.25C277.9 195.25 289.74 208.83 292.69 223.55C295.64 238.27 294.89 248.34 290.79 252.49C286.69 256.64 282.1 255.6 279.28 252.37C276.46 249.14 279.28 236.63 279.28 236.63C279.28 236.63 273.92 225.4 266.68 217.86C259.44 210.32 258.07 209.21 258.07 209.21C258.07 209.21 267.92 195.48 277.9 195.25Z" fill="white"/>
<mask id="mask4_521_465" style="mask-type:luminance" maskUnits="userSpaceOnUse" x="258" y="195" width="37" height="61">
<path d="M277.9 195.25C277.9 195.25 289.74 208.83 292.69 223.55C295.64 238.27 294.89 248.34 290.79 252.49C286.69 256.64 282.1 255.6 279.28 252.37C276.46 249.14 279.28 236.63 279.28 236.63C279.28 236.63 273.92 225.4 266.68 217.86C259.44 210.32 258.07 209.21 258.07 209.21C258.07 209.21 267.92 195.48 277.9 195.25Z" fill="white"/>
</mask>
<g mask="url(#mask4_521_465)">
<path d="M277.9 195.25C267.9 195.48 258.02 209.25 258.02 209.25C258.02 209.25 259.38 210.37 266.63 217.9C267.986 219.328 269.261 220.83 270.45 222.4C274.234 216.008 279.64 210.73 286.12 207.1C283.735 202.915 280.984 198.949 277.9 195.25Z" fill="#92E3A9"/>
<path opacity="0.5" d="M277.9 195.25C267.9 195.48 258.02 209.25 258.02 209.25C258.02 209.25 259.38 210.37 266.63 217.9C267.986 219.328 269.261 220.83 270.45 222.4C274.234 216.008 279.64 210.73 286.12 207.1C283.735 202.915 280.984 198.949 277.9 195.25Z" fill="white"/>
</g>
<path d="M277.9 195.25C277.9 195.25 289.74 208.83 292.69 223.55C295.64 238.27 294.89 248.34 290.79 252.49C286.69 256.64 282.1 255.6 279.28 252.37C276.46 249.14 279.28 236.63 279.28 236.63C279.28 236.63 273.92 225.4 266.68 217.86C259.44 210.32 258.07 209.21 258.07 209.21C258.07 209.21 267.92 195.48 277.9 195.25Z" stroke="#0F172A" stroke-width="1.1133" stroke-linecap="round" stroke-linejoin="round"/>
<path d="M290.79 252.49C291.686 249.128 291.937 245.626 291.53 242.17" stroke="#0F172A" stroke-width="1.1133" stroke-linecap="round" stroke-linejoin="round"/>
<path d="M284.25 254.63C284.25 254.63 286.32 250.18 285.86 242.97" stroke="#0F172A" stroke-width="1.1133" stroke-linecap="round" stroke-linejoin="round"/>
<path d="M277.29 222.06C277.04 219.45 281.51 213.87 288.21 210.98C289.369 213.311 290.371 215.716 291.21 218.18C288.573 218.915 286.049 220.009 283.71 221.43C280.21 223.78 277.59 225 277.29 222.06Z" fill="#92E3A9" stroke="#0F172A" stroke-width="1.1133" stroke-linecap="round" stroke-linejoin="round"/>
<path d="M278.59 196.08C280.429 198.349 282.145 200.716 283.73 203.17C281.683 203.928 279.748 204.961 277.98 206.24C270.75 211.46 269.31 212.1 271.15 205.42C272.3 201.25 275.58 198.14 278.59 196.08Z" fill="#92E3A9" stroke="#0F172A" stroke-width="1.1133" stroke-linecap="round" stroke-linejoin="round"/>
<path d="M195.07 189.8C195.07 189.8 191.99 200.19 193.15 204.42C194.31 208.65 199.69 204.81 205.08 209.42C210.47 214.03 215.46 222.35 235.87 223.89C256.28 225.43 268.6 214.42 272.87 208.26C277.14 202.1 276.72 194.79 284.03 194.41C291.34 194.03 285.19 179.78 282.88 177.47C282.88 177.47 297.12 156.3 297.12 150.91C297.12 145.52 283.65 146.67 267.12 151.68C267.12 151.68 254.8 145.13 232.47 148.98C210.14 152.83 203.6 159.38 203.6 159.38C203.6 159.38 175.88 162.84 173.96 166.3C172.04 169.76 177.75 184.41 195.07 189.8Z" fill="white"/>
<mask id="mask5_521_465" style="mask-type:luminance" maskUnits="userSpaceOnUse" x="173" y="147" width="125" height="78">
<path d="M195.07 189.8C195.07 189.8 191.99 200.19 193.15 204.42C194.31 208.65 199.69 204.81 205.08 209.42C210.47 214.03 215.46 222.35 235.87 223.89C256.28 225.43 268.6 214.42 272.87 208.26C277.14 202.1 276.72 194.79 284.03 194.41C291.34 194.03 285.19 179.78 282.88 177.47C282.88 177.47 297.12 156.3 297.12 150.91C297.12 145.52 283.65 146.67 267.12 151.68C267.12 151.68 254.8 145.13 232.47 148.98C210.14 152.83 203.6 159.38 203.6 159.38C203.6 159.38 175.88 162.84 173.96 166.3C172.04 169.76 177.75 184.41 195.07 189.8Z" fill="white"/>
</mask>
<g mask="url(#mask5_521_465)">
<path d="M284 194.42C291.32 194.03 285.16 179.79 282.85 177.48C282.85 177.48 285.56 173.48 288.61 168.48C280.34 164.16 272.22 161.76 270.06 164.19C265.41 169.41 267.94 179.41 270.06 189.19C272.18 198.97 263.71 203.14 257.79 211.6C251.87 220.06 243.42 210.75 243.42 210.75C240.42 223.02 227.77 214.98 227.77 214.98C218.05 211.98 201.56 202.3 204.94 195.53C208.32 188.76 209.17 182.42 203.25 176.93C197.33 171.44 173.72 166.87 173.72 166.87C172.48 171.04 178.47 184.7 195.08 189.87C195.08 189.87 192 200.26 193.16 204.49C194.32 208.72 199.7 204.88 205.09 209.49C210.48 214.1 215.47 222.42 235.88 223.96C256.29 225.5 268.61 214.49 272.88 208.33C277.15 202.17 276.68 194.8 284 194.42Z" fill="#92E3A9"/>
<path opacity="0.5" d="M284 194.42C291.32 194.03 285.16 179.79 282.85 177.48C282.85 177.48 285.56 173.48 288.61 168.48C280.34 164.16 272.22 161.76 270.06 164.19C265.41 169.41 267.94 179.41 270.06 189.19C272.18 198.97 263.71 203.14 257.79 211.6C251.87 220.06 243.42 210.75 243.42 210.75C240.42 223.02 227.77 214.98 227.77 214.98C218.05 211.98 201.56 202.3 204.94 195.53C208.32 188.76 209.17 182.42 203.25 176.93C197.33 171.44 173.72 166.87 173.72 166.87C172.48 171.04 178.47 184.7 195.08 189.87C195.08 189.87 192 200.26 193.16 204.49C194.32 208.72 199.7 204.88 205.09 209.49C210.48 214.1 215.47 222.42 235.88 223.96C256.29 225.5 268.61 214.49 272.88 208.33C277.15 202.17 276.68 194.8 284 194.42Z" fill="white"/>
<path d="M253.89 196.74C254.18 199.18 248.76 201.81 241.81 202.62C234.86 203.43 228.98 202.11 228.69 199.62C228.4 197.13 233.82 194.56 240.78 193.75C247.74 192.94 253.61 194.31 253.89 196.74Z" fill="#92E3A9"/>
<path opacity="0.5" d="M253.89 196.74C254.18 199.18 248.76 201.81 241.81 202.62C234.86 203.43 228.98 202.11 228.69 199.62C228.4 197.13 233.82 194.56 240.78 193.75C247.74 192.94 253.61 194.31 253.89 196.74Z" fill="white"/>
</g>
<path d="M195.07 189.8C195.07 189.8 191.99 200.19 193.15 204.42C194.31 208.65 199.69 204.81 205.08 209.42C210.47 214.03 215.46 222.35 235.87 223.89C256.28 225.43 268.6 214.42 272.87 208.26C277.14 202.1 276.72 194.79 284.03 194.41C291.34 194.03 285.19 179.78 282.88 177.47C282.88 177.47 297.12 156.3 297.12 150.91C297.12 145.52 283.65 146.67 267.12 151.68C267.12 151.68 254.8 145.13 232.47 148.98C210.14 152.83 203.6 159.38 203.6 159.38C203.6 159.38 175.88 162.84 173.96 166.3C172.04 169.76 177.75 184.41 195.07 189.8Z" stroke="#0F172A" stroke-width="1.1133" stroke-miterlimit="10"/>
<path d="M274.69 159C264.69 165.72 268.22 172.44 272.69 176.17C275.42 178.45 279.82 178.17 282.83 177.53C282.83 177.53 297.07 156.36 297.07 150.97C297.08 150.92 284.64 152.23 274.69 159Z" fill="#92E3A9" stroke="#0F172A" stroke-width="1.1133" stroke-miterlimit="10"/>
<path d="M173.71 166.8C172.47 170.97 178.46 184.63 195.07 189.8C195.07 189.8 207.75 188.56 203.52 178.36C199.57 168.84 179.6 166.47 173.71 166.8Z" fill="#92E3A9" stroke="#0F172A" stroke-width="1.1133" stroke-miterlimit="10"/>
<path d="M232.41 149C231.1 149.23 229.84 149.47 228.63 149.71C230.63 159.81 233.92 176.63 236.86 176.63C239.8 176.63 242.05 158.19 243.01 147.86C239.456 148.01 235.915 148.391 232.41 149Z" fill="#92E3A9" stroke="#0F172A" stroke-width="1.1133" stroke-miterlimit="10"/>
<path d="M220.94 173.63C224 171.83 223.54 158.3 223.05 150.96C219.891 151.745 216.783 152.716 213.74 153.87C214.85 160.74 217.67 175.55 220.94 173.63Z" fill="#92E3A9" stroke="#0F172A" stroke-width="1.1133" stroke-miterlimit="10"/>
<path d="M250.55 167.41C253.68 168.51 255.44 157.26 256.43 148.6C253.269 148.085 250.073 147.814 246.87 147.79C246.77 154.9 247.16 166.22 250.55 167.41Z" fill="#92E3A9" stroke="#0F172A" stroke-width="1.1133" stroke-miterlimit="10"/>
<path d="M246.36 206.35C243.44 205.582 240.336 205.965 237.69 207.42C237.574 207.487 237.475 207.58 237.402 207.692C237.328 207.804 237.282 207.932 237.266 208.065C237.251 208.198 237.266 208.333 237.312 208.459C237.358 208.585 237.433 208.698 237.53 208.79L242.84 213.79C242.939 213.883 243.06 213.951 243.191 213.989C243.322 214.027 243.46 214.032 243.594 214.006C243.728 213.98 243.854 213.922 243.961 213.837C244.068 213.753 244.153 213.644 244.21 213.52L246.93 207.52C246.979 207.407 247.002 207.284 246.999 207.16C246.996 207.037 246.967 206.916 246.913 206.805C246.859 206.694 246.781 206.596 246.686 206.517C246.59 206.439 246.479 206.382 246.36 206.35Z" fill="#92E3A9" stroke="#0F172A" stroke-width="1.1133" stroke-linecap="round" stroke-linejoin="round"/>
<path d="M233.74 198C234.47 199.93 234.18 201.83 233.09 202.24C232 202.65 230.52 201.43 229.78 199.51C229.04 197.59 229.34 195.68 230.43 195.27C231.52 194.86 233 196.08 233.74 198Z" fill="#222222"/>
<path d="M248.22 196.63C247.84 198.63 248.46 200.48 249.61 200.69C250.76 200.9 252 199.44 252.38 197.41C252.76 195.38 252.14 193.57 250.99 193.35C249.84 193.13 248.6 194.61 248.22 196.63Z" fill="#222222"/>
<path d="M244.21 213.51C244.21 213.51 237.11 223.15 230.64 213.45" stroke="#0F172A" stroke-width="1.1133" stroke-linecap="round" stroke-linejoin="round"/>
<path d="M242.84 213.78C242.84 213.78 247.56 218.67 252.54 215.93C257.52 213.19 254.54 208.93 254.54 208.93" stroke="#0F172A" stroke-width="1.1133" stroke-linecap="round" stroke-linejoin="round"/>
<path d="M221.19 190.3C221.19 190.3 222.93 184.08 231.14 185.57" stroke="#0F172A" stroke-width="3.33991" stroke-linecap="round" stroke-linejoin="round"/>
<path d="M246.07 184.58C246.07 184.58 252.29 180.85 258.01 186.82" stroke="#0F172A" stroke-width="3.33991" stroke-linecap="round" stroke-linejoin="round"/>
<path d="M216.46 206.98L222.43 208.47" stroke="#0F172A" stroke-width="1.1133" stroke-miterlimit="10" stroke-linecap="round"/>
<path d="M221.68 210.71L216.46 211.7" stroke="#0F172A" stroke-width="1.1133" stroke-miterlimit="10" stroke-linecap="round"/>
<path d="M222.68 213.45L218.95 215.44" stroke="#0F172A" stroke-width="1.1133" stroke-miterlimit="10" stroke-linecap="round"/>
<path d="M260.5 204.24L265.73 202.99" stroke="#0F172A" stroke-width="1.1133" stroke-miterlimit="10" stroke-linecap="round"/>
<path d="M261.5 206.73H264.98" stroke="#0F172A" stroke-width="1.1133" stroke-miterlimit="10" stroke-linecap="round"/>
<path d="M262.24 209.22L266.97 210.46" stroke="#0F172A" stroke-width="1.1133" stroke-miterlimit="10" stroke-linecap="round"/>
<path d="M58 253.2C58 250.43 59.28 248.39 62.16 248.39C65.04 248.39 66.37 250.39 66.37 253.2V262.92C66.37 265.69 65.09 267.73 62.16 267.73C59.23 267.73 58 265.73 58 262.92V253.2ZM59.25 263C59.25 265.07 60.07 266.59 62.16 266.59C64.25 266.59 65.16 265.07 65.16 263V253.12C65.16 251.05 64.32 249.53 62.16 249.53C60 249.53 59.25 251.05 59.25 253.12V263Z" fill="#0F172A"/>
<path d="M68.3398 253.2C68.3398 250.43 69.6198 248.39 72.4998 248.39C75.3798 248.39 76.7098 250.39 76.7098 253.2V262.92C76.7098 265.69 75.4298 267.73 72.4998 267.73C69.5698 267.73 68.3398 265.73 68.3398 262.92V253.2ZM69.5898 263C69.5898 265.07 70.4098 266.59 72.4998 266.59C74.5898 266.59 75.4998 265.07 75.4998 263V253.12C75.4998 251.05 74.6598 249.53 72.4998 249.53C70.3398 249.53 69.5898 251.05 69.5898 253.12V263Z" fill="#0F172A"/>
<path d="M82.7198 248.55C85.6598 248.55 86.7998 250.4 86.7998 253.17V255.24C86.7998 258.24 85.4098 259.74 82.3998 259.74H80.0298V267.57H78.7798V248.57L82.7198 248.55ZM82.3998 258.6C84.5998 258.6 85.5498 257.6 85.5498 255.32V253.09C85.5498 251.03 84.8398 249.69 82.7198 249.69H80.0298V258.6H82.3998Z" fill="#0F172A"/>
<path d="M96.6898 253.14V253.55H95.4898V253.06C95.4898 251.06 94.7298 249.53 92.6698 249.53C90.6098 249.53 89.8398 251 89.8398 253C89.8398 257.61 96.7098 257.69 96.7098 262.94C96.7098 265.68 95.5198 267.69 92.6098 267.69C89.6998 267.69 88.5098 265.69 88.5098 262.94V261.94H89.7098V263C89.7098 265 90.4898 266.5 92.5798 266.5C94.6698 266.5 95.4598 265.03 95.4598 263C95.4598 258.43 88.5898 258.35 88.5898 253.06C88.5898 250.2 89.8398 248.36 92.5898 248.33C95.3398 248.3 96.6898 250.4 96.6898 253.14Z" fill="#0F172A"/>
<path d="M99.8098 265.18V267.57H98.5898V265.18H99.8098Z" fill="#0F172A"/>
<path d="M103.21 265.18V267.57H101.98V265.18H103.21Z" fill="#0F172A"/>
<path d="M106.6 265.18V267.57H105.34V265.18H106.6Z" fill="#0F172A"/>
<path d="M62.0201 276.22C64.9601 276.22 66.1001 278.06 66.1001 280.83V282.9C66.1001 285.9 64.7101 287.41 61.7001 287.41H59.3401V295.23H58.0801V276.23L62.0201 276.22ZM61.7001 286.22C63.9001 286.22 64.8501 285.22 64.8501 282.93V280.7C64.8501 278.64 64.1401 277.31 62.0201 277.31H59.3401V286.22H61.7001Z" fill="#0F172A"/>
<path d="M69.4398 291L68.4898 295.21H67.3398L71.4898 276.21H73.3398L77.5798 295.21H76.3398L75.3398 291H69.4398ZM69.6298 289.91H75.1698L72.3398 277.63L69.6298 289.91Z" fill="#0F172A"/>
<path d="M87.5599 280.86V282.27H86.3399V280.78C86.3399 278.78 85.5599 277.19 83.4599 277.19C81.3599 277.19 80.5899 278.74 80.5899 280.78V290.67C80.5899 292.67 81.3699 294.22 83.4599 294.22C85.5499 294.22 86.3399 292.7 86.3399 290.67V286.56H83.8399V285.42H87.5599V290.58C87.5599 293.33 86.3599 295.39 83.4599 295.39C80.5599 295.39 79.3599 293.33 79.3599 290.58V280.86C79.3599 278.12 80.5499 276.05 83.4599 276.05C86.3699 276.05 87.5599 278.12 87.5599 280.86Z" fill="#0F172A"/>
<path d="M96.0899 285V286.14H90.8999V294.07H97.1499V295.21H89.6499V276.21H97.1499V277.35H90.8999V285H96.0899Z" fill="#0F172A"/>
<path d="M104.54 295.23H103.4V276.23H105.03L110.73 292.23V276.23H111.87V295.23H110.49L104.49 278.23L104.54 295.23Z" fill="#0F172A"/>
<path d="M113.94 280.86C113.94 278.09 115.21 276.05 118.09 276.05C120.97 276.05 122.3 278.05 122.3 280.86V290.58C122.3 293.35 121.03 295.39 118.09 295.39C115.15 295.39 113.94 293.39 113.94 290.58V280.86ZM115.19 290.67C115.19 292.73 116 294.25 118.09 294.25C120.18 294.25 121.09 292.73 121.09 290.67V280.78C121.09 278.71 120.25 277.19 118.09 277.19C115.93 277.19 115.19 278.71 115.19 280.78V290.67Z" fill="#0F172A"/>
<path d="M127.57 295.23V277.36H123.72V276.22H132.72V277.36H128.83V295.23H127.57Z" fill="#0F172A"/>
<path d="M144.63 285.48V286.62H139.72V295.23H138.47V276.23H145.69V277.37H139.69V285.49L144.63 285.48Z" fill="#0F172A"/>
<path d="M147.51 280.86C147.51 278.09 148.79 276.05 151.67 276.05C154.55 276.05 155.88 278.05 155.88 280.86V290.58C155.88 293.35 154.6 295.39 151.67 295.39C148.74 295.39 147.51 293.39 147.51 290.58V280.86ZM148.76 290.67C148.76 292.73 149.58 294.25 151.67 294.25C153.76 294.25 154.67 292.73 154.67 290.67V280.78C154.67 278.71 153.83 277.19 151.67 277.19C149.51 277.19 148.76 278.71 148.76 280.78V290.67Z" fill="#0F172A"/>
<path d="M159.14 290.64C159.14 292.64 159.9 294.25 161.99 294.25C164.08 294.25 164.84 292.68 164.84 290.64V276.22H166.01V290.58C166.01 293.3 164.87 295.39 162.01 295.39C159.15 295.39 157.93 293.3 157.93 290.58V276.22H159.18L159.14 290.64Z" fill="#0F172A"/>
<path d="M169.34 295.23H168.2V276.23H169.83L175.53 292.23V276.23H176.67V295.23H175.29L169.34 278.23V295.23Z" fill="#0F172A"/>
<path d="M182.96 276.22C185.9 276.22 187.17 278.14 187.17 280.94V290.5C187.17 293.3 185.9 295.23 182.96 295.23H178.78V276.23L182.96 276.22ZM182.96 294.09C185.08 294.09 185.96 292.65 185.96 290.56V280.89C185.96 278.8 185.07 277.36 182.96 277.36H180.05V294.09H182.96Z" fill="#0F172A"/>
</svg>
